<svg width="7" height="15" viewBox="0 0 7 15" fill="none" xmlns="http://www.w3.org/2000/svg">
<path d="M3.31767 0.5C2.48517 0.591103 1.73031 1.41385 1.73031 2.4792C1.73031 3.06628 1.97155 3.58552 2.32513 3.9445L2.74697 4.37264L2.09792 4.47542C1.63831 4.54821 1.30134 4.75278 1.01328 5.08586C0.725221 5.41896 0.505001 5.88306 0.350657 6.41788C0.0712216 7.38685 0.00976226 8.56992 0 9.61282H1.52733L1.94671 14.3507C3.0118 14.5532 4.14896 14.5461 5.17474 14.3514L5.54578 9.61285H7C6.99904 8.55717 6.98301 7.35776 6.72979 6.38147C6.5902 5.84314 6.37857 5.37973 6.08705 5.05041C5.79543 4.72112 5.44289 4.51775 4.92688 4.45039L4.26447 4.36394L4.6826 3.92256C5.0209 3.56544 5.25024 3.05214 5.25024 2.47926C5.25024 1.34346 4.40744 0.502792 3.49022 0.502792L3.31767 0.5Z" fill="#88A222"/>
</svg>
